<svg xmlns="http://www.w3.org/2000/svg" width="760" height="520" viewBox="0 0 760 520">
  <rect width="760" height="520" fill="#f5f7fa"/>
  <rect x="220" y="28" width="320" height="464" rx="24" fill="#ffffff" stroke="#d5d9df" stroke-width="2"/>
  <text x="244" y="66" font-family="sans-serif" font-size="18">⚙ 설정</text>
  <text x="330" y="66" font-family="sans-serif" font-size="18">▣ 배경</text>
  <text x="414" y="66" font-family="sans-serif" font-size="18">⊟ 미니</text>
  <text x="488" y="66" font-family="sans-serif" font-size="18">📌</text>
  <text x="380" y="108" text-anchor="middle" font-family="sans-serif" font-size="15" fill="#667085">2026.06.10. (수요일)</text>
  <text x="380" y="150" text-anchor="middle" font-family="sans-serif" font-size="40" font-weight="700">12:48</text>
  <text x="380" y="180" text-anchor="middle" font-family="sans-serif" font-size="16">현재 교시: 점심</text>
  <text x="380" y="205" text-anchor="middle" font-family="sans-serif" font-size="16" fill="#2a9fd6">5교시 시작까지 12분 남음</text>
  <g font-family="sans-serif" font-size="15">
    <rect x="246" y="230" width="268" height="42" rx="10" fill="#f0f0ee"/><text x="262" y="256">학급 조회</text><text x="494" y="256" text-anchor="end" fill="#8b8f95">08:20 - 08:35</text>
    <rect x="246" y="282" width="268" height="42" rx="10" fill="#f0f0ee"/><text x="262" y="308">1교시 · 1-12 독서</text><text x="494" y="308" text-anchor="end" fill="#8b8f95">08:40 - 09:25</text>
    <rect x="246" y="334" width="268" height="42" rx="10" fill="#9eddf2"/><text x="262" y="360" font-weight="700">점심</text><text x="494" y="360" text-anchor="end" fill="#667085">12:15 - 13:00</text>
    <rect x="246" y="386" width="268" height="42" rx="10" fill="#47b7dc"/><text x="262" y="412" font-weight="700">영업시간</text><text x="494" y="412" text-anchor="end" fill="#ffffff">08:20 - 16:20</text>
  </g>
  <line x1="86" y1="65" x2="220" y2="65" stroke="#667085" stroke-width="2"/>
  <text x="78" y="59" text-anchor="end" font-family="sans-serif" font-size="15">상단 버튼</text>
  <line x1="540" y1="345" x2="650" y2="345" stroke="#667085" stroke-width="2"/>
  <text x="660" y="340" font-family="sans-serif" font-size="15">현재 일정과</text>
  <text x="660" y="360" font-family="sans-serif" font-size="15">진행 상태</text>
  <line x1="380" y1="428" x2="380" y2="478" stroke="#667085" stroke-width="2"/>
  <text x="380" y="508" text-anchor="middle" font-family="sans-serif" font-size="15">아래 슬라이더: 위젯 투명도</text>
</svg>
